<svg width="244" height="38" viewBox="0 0 244 38" fill="none" xmlns="http://www.w3.org/2000/svg">
<g clip-path="url(#clip0_2813_31404)">
<path fill-rule="evenodd" clip-rule="evenodd" d="M48.7877 0.00585938C51.6267 0.00585938 53.9345 2.41622 53.9345 5.39396C53.9345 8.32299 51.6267 10.7397 48.7877 10.7397C45.982 10.7397 43.6768 8.32299 43.6768 5.39396C43.6768 2.41622 45.982 0.00585938 48.7877 0.00585938Z" fill="#F99D1C"/>
<path fill-rule="evenodd" clip-rule="evenodd" d="M12.6227 37.0409H0.00146484V32.7728H0.938309C1.55013 32.7728 1.76419 32.4061 1.76419 31.8161V18.599C1.76419 18.0026 1.55013 17.6431 0.938309 17.6431H0.00146484V13.2449H11.3865V16.948C13.0079 14.5609 15.1272 12.7432 18.5164 12.7432C22.9956 12.7432 24.5012 14.6239 25.0206 17.4027C26.2829 15.0074 28.8279 12.7432 32.4398 12.7432C38.1292 12.7432 38.9018 15.6046 38.9018 19.8397V31.8161C38.9018 32.4061 39.1573 32.7728 39.8574 32.7728H40.5804V37.0409H28.1747V32.7728H28.5143C29.0844 32.7728 29.3383 32.4061 29.3383 31.8161V20.9311C29.3383 18.9733 28.6959 18.3414 27.3845 18.3414C25.6512 18.3414 25.0885 19.8397 25.0885 22.1577V31.7698C25.0885 32.4061 25.3486 32.7728 25.919 32.7728H26.4286V37.0409H14.3662V32.7728H14.7109C15.2699 32.7728 15.5282 32.4061 15.5282 31.8161V20.9311C15.5282 18.9733 14.8842 18.3414 13.5734 18.3414C11.842 18.3414 11.2802 19.8397 11.2802 22.1577V31.7698C11.2802 32.4061 11.5 32.7728 12.1089 32.7728H12.6227V37.0409Z" fill="#F99D1C"/>
<path fill-rule="evenodd" clip-rule="evenodd" d="M44.0762 18.5944C44.0762 17.9979 43.864 17.6385 43.2508 17.6385H42.314V13.2402H53.5938V31.7652C53.5938 32.4014 53.8118 32.7679 54.4186 32.7679H55.2762V37.0362H42.314V32.7679H43.2508C43.864 32.7679 44.0762 32.4014 44.0762 31.8115V18.5944Z" fill="#F99D1C"/>
<path fill-rule="evenodd" clip-rule="evenodd" d="M69.863 37.0409H57.2383V32.7728H58.1749C58.7856 32.7728 59.0045 32.4061 59.0045 31.8161V18.599C59.0045 18.0026 58.7856 17.6431 58.1749 17.6431H57.2383V13.2449H68.5203V16.9958C69.7893 14.972 72.3652 12.7432 76.1035 12.7432C81.3639 12.7432 82.5006 15.6046 82.5006 19.8397V31.8161C82.5006 32.4061 82.7126 32.7728 83.4139 32.7728H84.179V37.0409H71.6004V32.7728H72.1168C72.6774 32.7728 72.9425 32.4061 72.9425 31.8161V20.9311C72.9425 18.9733 72.251 18.3414 70.9937 18.3414C69.6394 18.3414 68.5203 19.3816 68.5203 21.6992V31.7698C68.5203 32.4061 68.8434 32.7728 69.4501 32.7728H69.863V37.0409Z" fill="#F99D1C"/>
<path fill-rule="evenodd" clip-rule="evenodd" d="M83.9651 13.2443L87.3186 13.1084L87.7192 7.69336H96.2226V13.2443H100.248V17.7078H96.2226V28.4867C96.2226 31.2998 96.7438 32.2158 99.6975 32.2158H100.453V37.0404C98.4991 37.2638 96.7749 37.3535 94.8148 37.3535C89.4249 37.3535 86.7054 35.6036 86.7054 30.899V17.7078H83.9651V13.2443Z" fill="#F99D1C"/>
<path d="M110.493 37.2834V25.6056H116.305C121.288 25.6056 124.798 22.98 124.798 17.6505C124.798 12.3994 121.363 9.65625 115.739 9.65625H108.757V37.2834H110.493ZM116.117 24.1164H110.493V11.2629H115.664C120.457 11.2629 123.024 13.3791 123.024 17.6113C123.024 21.8827 120.495 24.1164 116.117 24.1164ZM130.082 37.2834V21.3733C131.403 19.4923 133.252 18.2775 135.706 18.2775C136.234 18.2775 136.725 18.3559 137.14 18.4734L137.253 18.3951V16.8667C136.687 16.7492 136.31 16.71 135.706 16.71C133.328 16.71 131.327 18.0032 130.044 19.8058L129.855 16.9059H128.383V37.2834H130.082ZM149.142 37.5969C152.388 37.5969 154.879 36.4605 155.936 35.7551V34.1484L155.861 34.1092C154.54 34.9322 152.162 36.0686 149.218 36.0686C144.16 36.0686 140.914 32.7769 140.914 27.0555V26.5461H156.276C156.691 19.5707 153.105 16.5924 148.425 16.5924C143.066 16.5924 139.254 20.7855 139.254 27.0555C139.254 33.5998 143.179 37.5969 149.142 37.5969ZM154.577 25.1353H141.027C141.669 20.7855 144.424 18.1207 148.388 18.1207C152.162 18.1207 154.577 20.5112 154.577 25.1353ZM161.673 37.2834V20.7071C163.334 19.1788 165.259 18.0424 167.75 18.0424C170.166 18.0424 172.279 19.5315 172.279 22.8624V37.2834H173.978V21.4517L173.751 21.2166C173.751 21.1382 173.714 21.0206 173.714 20.9422C175.601 19.1396 177.488 18.0424 180.055 18.0424C182.47 18.0424 184.584 19.5707 184.584 23.2151V37.2834H186.244V22.9016C186.244 18.8261 183.791 16.5924 180.394 16.5924C177.45 16.5924 175.374 18.0424 173.412 19.9234C172.581 17.8072 170.581 16.5924 168.09 16.5924C165.334 16.5924 163.296 17.964 161.636 19.4923L161.447 16.9059H159.975V37.2834H161.673ZM192.85 12.5169V10.2441H191.038V12.5169H192.85ZM192.812 37.2834V16.9059H191.113V37.2834H192.812ZM204.06 37.5969C206.966 37.5969 209.23 36.2254 210.967 34.6579L211.155 37.2834H212.59V16.9059H210.929V33.4822C209.193 34.9714 207.004 36.147 204.399 36.147C201.455 36.147 199.304 34.7754 199.304 30.9351V16.9059H197.605V31.2486C197.605 35.52 200.096 37.5969 204.06 37.5969ZM219.233 37.2834V20.7071C220.893 19.1788 222.818 18.0424 225.309 18.0424C227.725 18.0424 229.839 19.5315 229.839 22.8624V37.2834H231.537V21.4517L231.311 21.2166C231.311 21.1382 231.273 21.0206 231.273 20.9422C233.16 19.1396 235.047 18.0424 237.614 18.0424C240.029 18.0424 242.143 19.5707 242.143 23.2151V37.2834H243.804V22.9016C243.804 18.8261 241.35 16.5924 237.953 16.5924C235.009 16.5924 232.933 18.0424 230.971 19.9234C230.14 17.8072 228.14 16.5924 225.649 16.5924C222.894 16.5924 220.855 17.964 219.195 19.4923L219.006 16.9059H217.534V37.2834H219.233Z" fill="#212121"/>
</g>
<defs>
<clipPath id="clip0_2813_31404">
<rect width="244" height="38" fill="white"/>
</clipPath>
</defs>
</svg>
