<svg width="110" height="32" viewBox="0 0 110 32" fill="none" xmlns="http://www.w3.org/2000/svg">
<g clip-path="url(#clip0_2282_32113)">
<path d="M15.3865 30.6928C23.8842 30.6928 30.773 23.822 30.773 15.3464C30.773 6.87082 23.8842 0 15.3865 0C6.88876 0 0 6.87082 0 15.3464C0 23.822 6.88876 30.6928 15.3865 30.6928Z" fill="#F99D1C"/>
<path d="M15.0208 10.9717C15.27 10.9707 15.514 11.0434 15.7219 11.1806C15.9297 11.3179 16.0921 11.5136 16.1885 11.7429C16.2848 11.9722 16.3108 12.2248 16.2632 12.4689C16.2156 12.7129 16.0965 12.9374 15.921 13.114C15.7455 13.2905 15.5214 13.4112 15.2771 13.4607C15.0328 13.5103 14.7793 13.4864 14.5486 13.3922C14.3179 13.2981 14.1204 13.1378 13.981 12.9316C13.8416 12.7255 13.7667 12.4827 13.7656 12.2341C13.7649 12.069 13.7969 11.9054 13.8596 11.7526C13.9223 11.5998 14.0145 11.4608 14.1311 11.3436C14.2476 11.2264 14.3862 11.1332 14.5388 11.0694C14.6915 11.0056 14.8552 10.9724 15.0208 10.9717Z" fill="white"/>
<path d="M6.13855 19.6444H3.03906V18.6455H3.26895C3.41956 18.6455 3.46976 18.5586 3.46976 18.4215V15.3275C3.46976 15.1878 3.41956 15.1035 3.26895 15.1035H3.03906V14.073H5.82411V14.9401C6.00695 14.64 6.26416 14.3919 6.571 14.2197C6.87783 14.0476 7.22394 13.9571 7.576 13.957C8.67787 13.957 9.04779 14.3972 9.17463 15.0481C9.35109 14.7187 9.61388 14.4433 9.93497 14.2511C10.2561 14.059 10.6234 13.9573 10.9979 13.957C12.3957 13.957 12.5833 14.6264 12.5833 15.62V18.4242C12.5833 18.5612 12.6467 18.6482 12.8184 18.6482H12.9955V19.647H9.95941V18.6482H10.0519C10.1919 18.6482 10.2554 18.5612 10.2554 18.4242V15.8757C10.2554 15.4171 10.0968 15.2669 9.77444 15.2669C9.34902 15.2669 9.20898 15.62 9.20898 16.1629V18.4136C9.20898 18.5612 9.27504 18.6482 9.41508 18.6482H9.52342V19.647H6.56662V18.6482H6.65117C6.78858 18.6482 6.85199 18.5612 6.85199 18.4242V15.8757C6.85199 15.4171 6.69345 15.2669 6.37372 15.2669C5.9483 15.2669 5.80826 15.62 5.80826 16.1629V18.4136C5.80826 18.5612 5.86375 18.6482 6.01172 18.6482H6.13855V19.6444Z" fill="white"/>
<path d="M13.8708 15.3277C13.8708 15.1881 13.818 15.1037 13.6674 15.1037H13.4375V14.0732H16.2093V18.4112C16.2093 18.5588 16.2622 18.6458 16.4128 18.6458H16.6215V19.6446H13.4375V18.6458H13.6674C13.818 18.6458 13.8708 18.5588 13.8708 18.4218V15.3277Z" fill="white"/>
<path d="M20.2037 19.6444H17.1016V18.6456H17.3315C17.4821 18.6456 17.5349 18.5586 17.5349 18.4215V15.3275C17.5349 15.1878 17.4821 15.1035 17.3315 15.1035H17.1016V14.073H19.8734V14.9533C20.0766 14.646 20.3532 14.394 20.6785 14.2201C21.0037 14.0462 21.3672 13.9558 21.7363 13.957C23.031 13.957 23.3085 14.6265 23.3085 15.62V18.4242C23.3085 18.5612 23.3613 18.6482 23.5331 18.6482H23.7207V19.647H20.6212V18.6482H20.748C20.8854 18.6482 20.9488 18.5612 20.9488 18.4242V15.8757C20.9488 15.4171 20.7797 15.2669 20.4706 15.2669C20.1614 15.2669 19.8628 15.512 19.8628 16.0575V18.4163C19.8591 18.4475 19.8625 18.4792 19.8727 18.5089C19.8829 18.5387 19.8996 18.5658 19.9216 18.5883C19.9437 18.6108 19.9705 18.6281 20.0001 18.6389C20.0297 18.6497 20.0613 18.6538 20.0927 18.6508H20.1931L20.2037 19.6444Z" fill="white"/>
<path d="M23.6719 14.0708L24.4937 14.0391L24.5941 12.7715H26.6815V14.0708H27.6724V15.125H26.6815V17.6498C26.6815 18.3086 26.811 18.5247 27.5377 18.5247H27.7226V19.6527C27.2629 19.7036 26.8006 19.7282 26.338 19.7265C25.0168 19.7265 24.343 19.318 24.343 18.2164V15.1171H23.6719V14.0708Z" fill="white"/>
<path d="M32.0916 25.4061V25.1188L32.4351 25.0055C32.749 24.9245 33.0246 24.7365 33.2142 24.4742C33.4038 24.2119 33.4956 23.8918 33.4735 23.5691V8.2122C33.4934 7.90309 33.4117 7.59594 33.241 7.33722C33.0308 7.10232 32.7465 6.9461 32.4351 6.89446L32.0625 6.80749V6.51758L37.3287 5.28418L37.6749 5.54773L37.5586 9.56683V19.384C37.5586 20.0929 37.5586 20.794 37.5745 21.4924C37.5903 22.1908 37.5877 22.8839 37.5877 23.5718C37.5731 23.8983 37.6529 24.2222 37.8176 24.5047C38.0059 24.7665 38.2811 24.9533 38.5944 25.0318L38.9696 25.1162V25.4034L32.0916 25.4061Z" fill="black"/>
<path d="M48.9692 11.8749C50.1868 12.3676 51.255 13.1677 52.0687 14.1968C52.8035 15.1569 53.2374 16.3122 53.3159 17.5175C53.3891 18.8593 53.1315 20.1986 52.5654 21.418C52.0645 22.662 51.2444 23.7526 50.1873 24.5806C49.2171 25.3176 48.057 25.7645 46.8421 25.8693C45.5815 25.9513 44.3195 25.7325 43.1606 25.2311C42.0017 24.7297 40.9793 23.9602 40.178 22.9861C39.4338 22.0359 38.9756 20.8943 38.8569 19.6944C38.7401 18.3488 38.9807 16.9962 39.5544 15.7728C40.0606 14.5219 40.8695 13.4154 41.9088 12.5522C42.8429 11.7956 43.9778 11.3267 45.1747 11.2029C46.4767 11.0918 47.7851 11.3235 48.9692 11.8749ZM48.7419 12.402C48.4805 12.2729 48.1961 12.1964 47.905 12.1769C47.614 12.1575 47.3219 12.1955 47.0455 12.2887C46.5276 12.4785 45.9921 12.981 45.439 13.7962C44.7055 14.953 44.0734 16.1707 43.5497 17.4358C42.9709 18.6917 42.5015 19.9949 42.1466 21.331C41.9246 22.293 41.922 23.0256 42.1466 23.5343C42.391 24.0681 42.8361 24.4846 43.3859 24.6939C43.9189 24.9525 44.5317 24.9951 45.0955 24.8125C45.6239 24.6245 46.1639 24.1238 46.7152 23.3103C47.4545 22.1376 48.0902 20.9031 48.6151 19.6206C49.1911 18.3729 49.657 17.0775 50.0076 15.7491C50.2296 14.7898 50.2269 14.0545 50.0076 13.5432C49.751 13.0116 49.2971 12.6005 48.7419 12.3968V12.402Z" fill="black"/>
<path d="M58.5992 25.8383C57.8896 25.846 57.187 25.6985 56.5408 25.4061C55.9126 25.1145 55.3976 24.6257 55.0743 24.0146C54.6846 23.2268 54.5105 22.3504 54.5696 21.4739L54.6568 14.0946C54.6854 13.7618 54.6047 13.4288 54.4269 13.1458C54.238 12.9358 53.984 12.7948 53.7055 12.7452L53.3594 12.6293V12.342L58.512 11.3379L58.8 11.6252L58.6573 15.7022V22.6204C58.6573 23.2318 58.8335 23.6816 59.1858 23.9697C59.5677 24.2659 60.0421 24.418 60.5255 24.3993C61.0143 24.407 61.5008 24.3294 61.9629 24.17C62.4164 24.001 62.8434 23.7685 63.2312 23.4795L63.3449 14.1236C63.3733 13.7996 63.3033 13.4745 63.144 13.1906C62.9498 12.9757 62.6842 12.8381 62.3963 12.8032L62.1082 12.7189V12.429L67.1446 11.3379L67.4326 11.6252L67.3454 15.7022V23.4795C67.3292 23.8141 67.3879 24.1481 67.5172 24.4573C67.6895 24.733 67.956 24.9371 68.2676 25.0318L68.5556 25.1162V25.4034L63.5166 25.6907L63.2524 23.9987C62.6226 24.5187 61.9324 24.9611 61.1966 25.3165C60.3808 25.682 59.4932 25.8603 58.5992 25.8383Z" fill="black"/>
<path d="M68.2654 25.4061V25.1188L68.6697 25.0055C69.3408 24.814 69.6764 24.3448 69.6764 23.5981V14.6138C69.7 14.29 69.6303 13.9663 69.4756 13.6808C69.2813 13.4458 69.0024 13.2963 68.6987 13.2644L68.2654 13.1484V12.8612L73.1881 11.1982L73.4761 11.4854L73.706 13.2064C74.3863 12.6075 75.1533 12.1144 75.9811 11.7437C76.7636 11.3736 77.6174 11.1775 78.4834 11.1692C79.7482 11.1692 80.7224 11.5136 81.4059 12.2023C82.0893 12.891 82.4293 13.9452 82.4258 15.3649V23.6324C82.3986 23.9609 82.4958 24.2877 82.6984 24.5482C82.9009 24.8088 83.194 24.9841 83.5197 25.0397L83.784 25.1241V25.4113H76.9931V25.1241L77.3657 25.0107C77.674 24.9337 77.9447 24.7498 78.1296 24.492C78.3145 24.2342 78.4015 23.9193 78.3751 23.6034V14.4398C78.3751 13.2099 77.7585 12.595 76.5254 12.595C75.6799 12.595 74.7585 13.0167 73.7615 13.86V23.6113C73.7615 24.3563 74.0971 24.8254 74.7682 25.0186L75.0325 25.103V25.3902L68.2654 25.4061Z" fill="black"/>
<path d="M89.7364 20.4407C88.5787 20.4756 87.428 20.2495 86.3701 19.7792V20.757C86.3502 21.0141 86.4324 21.2686 86.599 21.4658C86.7656 21.663 87.0031 21.7871 87.2605 21.8112L92.6721 22.8153C93.5058 22.9687 94.3246 23.1944 95.1189 23.49C95.7935 23.7299 96.3968 24.135 96.8735 24.668C97.343 25.2564 97.5791 25.9966 97.5367 26.7474C97.5336 27.6929 97.2084 28.6092 96.6145 29.346C95.8955 30.2168 94.957 30.8808 93.8955 31.2699C92.6959 31.7584 91.2038 32.0017 89.4193 31.9999C87.8832 31.9999 86.6651 31.8427 85.765 31.5282C84.8613 31.2119 84.2245 30.8061 83.8492 30.308C83.4926 29.857 83.2956 29.301 83.2891 28.7267C83.3084 27.9776 83.5543 27.2518 83.9946 26.6446C84.4451 25.9649 85.0394 25.3918 85.7359 24.9658C85.228 24.798 84.7789 24.4889 84.4411 24.0751C84.181 23.738 84.0389 23.325 84.0368 22.8996C84.0353 22.5191 84.1406 22.1457 84.3407 21.8217C84.558 21.4634 84.8027 21.1224 85.0727 20.8018L86.0239 19.5974C84.6234 18.7927 83.9232 17.5294 83.9232 15.8076C83.9031 15.173 84.0258 14.542 84.2823 13.9609C84.5388 13.3799 84.9227 12.8636 85.4056 12.45C86.3938 11.5873 87.8471 11.1568 89.7655 11.1586C90.6366 11.1435 91.5051 11.259 92.3418 11.5012C93.0124 11.6957 93.6346 12.0289 94.1677 12.4789C94.7646 12.3889 95.349 12.2297 95.909 12.0046C96.4504 11.7883 96.9515 11.4827 97.3913 11.1006L97.7956 11.3879V12.8505H94.5429C95.2839 13.7559 95.6503 14.9093 95.5673 16.0751C95.4843 17.2409 94.9581 18.3311 94.0963 19.123C93.1081 20.0032 91.6548 20.4425 89.7364 20.4407ZM85.4188 27.8201C85.4188 28.9516 85.7711 29.8037 86.4758 30.3765C87.1804 30.9493 88.2884 31.2357 89.7998 31.2357C91.3853 31.2357 92.584 30.9774 93.3961 30.4608C93.7746 30.2384 94.0864 29.9189 94.2992 29.5357C94.512 29.1524 94.6181 28.7193 94.6063 28.2813C94.6144 28.0347 94.5652 27.7895 94.4625 27.5651C94.3598 27.3406 94.2064 27.1428 94.0144 26.9873C93.6233 26.6631 92.9566 26.4145 92.0141 26.2414L86.806 25.2663L86.3463 25.1503C86.0662 25.5575 85.843 26.0008 85.683 26.4681C85.52 26.9 85.4306 27.3561 85.4188 27.8174V27.8201ZM89.7074 19.8688C90.0492 19.8877 90.3893 19.8087 90.6875 19.641C90.9858 19.4734 91.2297 19.2241 91.3905 18.9227C91.7429 18.2902 91.919 17.236 91.919 15.7601C91.919 14.2842 91.7429 13.2467 91.3905 12.6476C91.221 12.3695 90.9819 12.1401 90.6968 11.9818C90.4116 11.8236 90.0902 11.7419 89.7638 11.7448C89.4375 11.7478 89.1176 11.8352 88.8353 11.9985C88.553 12.1618 88.3182 12.3955 88.1536 12.6766C87.789 13.2986 87.6067 14.3457 87.6067 15.8181C87.6067 17.2905 87.7749 18.3332 88.1114 18.9464C88.2592 19.2377 88.4888 19.4798 88.7722 19.6431C89.0556 19.8065 89.3805 19.884 89.7074 19.8662V19.8688Z" fill="black"/>
<path d="M104.07 11.1687C105.183 11.1361 106.285 11.398 107.264 11.9278C108.124 12.4118 108.827 13.1292 109.294 13.9966C109.775 14.9119 110.018 15.9334 109.999 16.9668C110.004 17.1824 109.994 17.3981 109.97 17.6125C109.955 17.8121 109.917 18.0093 109.857 18.2002H101.279C101.299 20.2699 101.668 21.7581 102.387 22.6647C103.105 23.5713 104.175 24.0246 105.597 24.0246C106.399 24.0572 107.198 23.9 107.928 23.566C108.565 23.2252 109.131 22.7674 109.598 22.2167L109.883 22.4802C109.322 23.498 108.502 24.3499 107.505 24.9497C106.425 25.5669 105.195 25.8752 103.951 25.8405C102.686 25.8644 101.436 25.5621 100.323 24.9628C99.2715 24.3829 98.4121 23.5101 97.8497 22.4512C97.2262 21.2463 96.919 19.9035 96.9565 18.5481C96.9137 17.1394 97.2749 15.7479 97.9976 14.5369C98.6432 13.4763 99.5632 12.6087 100.661 12.0253C101.708 11.4618 102.88 11.1675 104.07 11.1687ZM103.985 11.7433C103.464 11.7289 102.956 11.9073 102.558 12.244C102.165 12.5787 101.858 13.1743 101.639 14.023C101.382 15.2063 101.261 16.415 101.279 17.6257H106.2C106.393 15.5419 106.317 14.0397 105.97 13.119C105.841 12.701 105.576 12.3382 105.216 12.0888C104.856 11.8393 104.423 11.7176 103.985 11.7433Z" fill="black"/>
</g>
<defs>
<clipPath id="clip0_2282_32113">
<rect width="110" height="32" fill="white"/>
</clipPath>
</defs>
</svg>
