<svg xmlns="http://www.w3.org/2000/svg" xmlns:xlink="http://www.w3.org/1999/xlink" width="134.532" height="31.989" viewBox="0 0 134.532 31.989">
  <defs>
    <clipPath id="clip-path">
      <path id="Path_58" data-name="Path 58" d="M55.609,7.989c4.9,0,7.883-1.837,7.883-5.051,0-6.428-11.71-3.673-11.71-6.581a2.27,2.27,0,0,1,1.148-1.607,7.487,7.487,0,0,0,2.794.459c4.516,0,6.429-3.061,6.429-5.931a5.436,5.436,0,0,0-1.493-3.826l3.789.076v-1.8H58.365a7.961,7.961,0,0,0-2.641-.421c-4.516,0-6.429,3.1-6.429,5.969A5.772,5.772,0,0,0,51.706-5.9a3.7,3.7,0,0,0-1.913,2.908A2.167,2.167,0,0,0,51.132-1a5.164,5.164,0,0,0-2.87,4.362C48.262,5.923,50.4,7.989,55.609,7.989Zm.115-22.959a4.062,4.062,0,0,1,4.363,4.247,4.062,4.062,0,0,1-4.363,4.247,4.083,4.083,0,0,1-4.363-4.247A4.083,4.083,0,0,1,55.724-14.97ZM55.571,6.267c-3.559,0-5.319-1.3-5.319-3.214a4.2,4.2,0,0,1,2.487-3.52c3.406.765,8.572.421,8.572,3.482C61.311,4.928,59.207,6.267,55.571,6.267ZM71.452.374a11.292,11.292,0,0,0,5.664-1.53V-3.07a10.465,10.465,0,0,1-5.472,1.645c-3.712,0-5.855-2.372-6.008-6.2H77.843a5.232,5.232,0,0,0,.077-1.071c0-3.712-1.952-8-7-8-4.592,0-7.5,3.482-7.5,8.61C63.416-3.07,66.248.374,71.452.374Zm-.536-15.306c3.406,0,4.707,2.832,4.86,5.625h-10.1C65.98-12.6,67.817-14.931,70.917-14.931ZM77.728-.047h8.266v-1.8H82.971v-10.14c1.569-1.416,3.635-2.832,5.893-2.832,2.334,0,3.1,1.492,3.1,3.673v9.3H88.941v1.8h8.266v-1.8H94.184v-9.566c0-3.482-1.837-5.281-4.745-5.281a9.732,9.732,0,0,0-6.506,2.946v-2.525h-5.2v1.837h3.023V-1.845H77.728Zm18.445,0h8.266v-1.8h-3.023V-16.271H96.174v1.837H99.2V-1.845H96.174Zm2.1-22.193a1.789,1.789,0,0,0,1.76,1.8,1.8,1.8,0,0,0,1.8-1.8,1.789,1.789,0,0,0-1.8-1.76A1.78,1.78,0,0,0,98.278-22.24ZM111.94.374a11.292,11.292,0,0,0,5.664-1.53V-3.07a10.465,10.465,0,0,1-5.472,1.645c-3.712,0-5.855-2.372-6.008-6.2h12.208a5.231,5.231,0,0,0,.077-1.071c0-3.712-1.952-8-7-8-4.592,0-7.5,3.482-7.5,8.61C103.9-3.07,106.736.374,111.94.374ZM111.4-14.931c3.406,0,4.707,2.832,4.86,5.625h-10.1C106.468-12.6,108.3-14.931,111.4-14.931Z" transform="translate(-48.262 24)" fill="#212121" clip-rule="evenodd"/>
    </clipPath>
    <clipPath id="clip-path-2">
      <path id="Path_57" data-name="Path 57" d="M-58,683.249H1776.4V-348H-58Z" transform="translate(58 348)" fill="#212121"/>
    </clipPath>
    <clipPath id="clip-path-3">
      <path id="Path_44" data-name="Path 44" d="M8.775-2.618H0V-5.582H.876c.388,0,.517-.218.517-.581v-7.425c0-.363-.144-.581-.517-.581H0v-3.051H7.784v2.209a4.686,4.686,0,0,1,4.524-2.514c2.844,0,3.863,1.09,4.194,2.79a4.6,4.6,0,0,1,4.639-2.79c3.619,0,4.308,1.758,4.308,4.359v7c0,.363.172.581.6.581H26.8v2.964H18.167V-5.582h.359c.359,0,.517-.218.517-.581V-12.5c0-1.206-.273-1.584-1.106-1.584-1.106,0-1.321.915-1.321,2.339v5.551c0,.393.172.61.517.61h.474v2.964H9.335V-5.582h.359c.359,0,.517-.218.517-.581V-12.5c0-1.206-.273-1.584-1.106-1.584-1.106,0-1.321.915-1.321,2.339v5.551c0,.393.144.61.517.61h.474Z" transform="translate(0 17.527)" fill="#f7941d" clip-rule="evenodd"/>
    </clipPath>
    <clipPath id="clip-path-4">
      <path id="Path_43" data-name="Path 43" d="M-58,683.349H1778.853V-348H-58Z" transform="translate(58 348)" fill="#f7941d"/>
    </clipPath>
    <clipPath id="clip-path-5">
      <path id="Path_47" data-name="Path 47" d="M24.857-22.763a3.225,3.225,0,0,1,3.2,3.24,3.218,3.218,0,0,1-3.2,3.211,3.213,3.213,0,0,1-3.174-3.211A3.219,3.219,0,0,1,24.857-22.763ZM21.712-11.792c0-.363-.144-.581-.517-.581h-.876v-3.051H28.1V-4.4c0,.392.144.61.517.61h.833V-.822H20.319V-3.786H21.2c.388,0,.517-.218.517-.581Z" transform="translate(-20.319 22.763)" fill="#f7941d" clip-rule="evenodd"/>
    </clipPath>
    <clipPath id="clip-path-6">
      <path id="Path_46" data-name="Path 46" d="M-58,683.349H1776.4V-348H-58Z" transform="translate(58 348)" fill="#f7941d"/>
    </clipPath>
    <clipPath id="clip-path-7">
      <path id="Path_50" data-name="Path 50" d="M36.248-2.618H27.473V-5.582h.876c.388,0,.517-.218.517-.581v-7.425c0-.363-.144-.581-.517-.581h-.876v-3.051h7.784v2.238c.876-1.758,2.341-2.543,4.739-2.543,3.332,0,4.194,1.758,4.194,4.359v7c0,.363.144.581.574.581h.775v2.964H36.794V-5.582h.474c.359,0,.517-.218.517-.581V-12.5c0-1.206-.3-1.584-1.106-1.584-1.106,0-1.436.915-1.436,2.339v5.551c0,.393.144.61.517.61h.474v2.964Z" transform="translate(-27.473 17.527)" fill="#f7941d" clip-rule="evenodd"/>
    </clipPath>
    <clipPath id="clip-path-9">
      <path id="Path_53" data-name="Path 53" d="M40.253-16.427l1.551-.087.244-3.328h5.9v3.4h2.484v3.008H47.951V-7.1c0,1.729.33,2.281,2.211,2.281h.417v2.964a32.878,32.878,0,0,1-3.777.189c-3.418,0-4.969-1.032-5.213-3.967V-13.4H40.267v-3.022Z" transform="translate(-40.253 19.842)" fill="#f7941d" clip-rule="evenodd"/>
    </clipPath>
  </defs>
  <g id="Group_12271" data-name="Group 12271" transform="translate(-133.51 -11.012)">
    <g id="Group_39" data-name="Group 39" transform="translate(197.896 11.012)">
      <path id="Path_55" data-name="Path 55" d="M61.329-2.754h51.507" transform="translate(-43.781 31.282)" fill="none" stroke="#f7941d" stroke-width="2"/>
      <g id="Group_36" data-name="Group 36" clip-path="url(#clip-path)">
        <g id="Group_35" data-name="Group 35" transform="translate(-142.699 -435.058)" clip-path="url(#clip-path-2)">
          <path id="Path_56" data-name="Path 56" d="M43.262-29h83.575V16.417H43.262Z" transform="translate(92.723 457.344)" fill="#212121"/>
        </g>
      </g>
    </g>
    <g id="Group_38" data-name="Group 38" transform="translate(133.51 13.75)">
      <g id="Group_28" data-name="Group 28" transform="translate(0 7.031)" clip-path="url(#clip-path-3)">
        <g id="Group_27" data-name="Group 27" transform="translate(-80.338 -443.793)" clip-path="url(#clip-path-4)">
          <path id="Path_42" data-name="Path 42" d="M-5-22.527H35.281V5.811H-5Z" transform="translate(76.269 459.605)" fill="#f7941d"/>
        </g>
      </g>
      <g id="Group_30" data-name="Group 30" transform="translate(27.286)" clip-path="url(#clip-path-5)">
        <g id="Group_29" data-name="Group 29" transform="translate(-105.175 -436.761)" clip-path="url(#clip-path-6)">
          <path id="Path_45" data-name="Path 45" d="M15.319-27.763H37.882V7.607H15.319Z" transform="translate(83.141 457.81)" fill="#f7941d"/>
        </g>
      </g>
      <g id="Group_32" data-name="Group 32" transform="translate(36.894 7.031)" clip-path="url(#clip-path-7)">
        <g id="Group_31" data-name="Group 31" transform="translate(-114.782 -443.793)" clip-path="url(#clip-path-6)">
          <path id="Path_48" data-name="Path 48" d="M22.473-22.527h31.5V5.811h-31.5Z" transform="translate(85.594 459.605)" fill="#f7941d"/>
        </g>
      </g>
      <g id="Group_34" data-name="Group 34" transform="translate(54.055 3.923)" clip-path="url(#clip-path-9)">
        <g id="Group_33" data-name="Group 33" transform="translate(-131.944 -440.684)" clip-path="url(#clip-path-6)">
          <path id="Path_51" data-name="Path 51" d="M35.253-24.842H59.008V6.765H35.253Z" transform="translate(89.977 458.811)" fill="#f7941d"/>
        </g>
      </g>
      <path id="Path_54" data-name="Path 54" d="M0-1.165H62.424" transform="translate(0 27.971)" fill="none" stroke="#212121" stroke-width="2"/>
    </g>
  </g>
</svg>
