<svg xmlns="http://www.w3.org/2000/svg" xmlns:xlink="http://www.w3.org/1999/xlink" width="140" height="13" viewBox="0 0 140 13">
    <defs>
        <path id="a" d="M.001.144h1.69v1.481H.001z"/>
        <path id="c" d="M.091 1.058h12.41v6.111H.091z"/>
        <path id="e" d="M.093.44h12.53v6.722H.093z"/>
        <path id="g" d="M.093.309h12.53v6.72H.093z"/>
    </defs>
    <g fill="none" fill-rule="evenodd">
        <g transform="rotate(-90 75.346 -62.346)">
            <mask id="b" fill="#fff">
                <use xlink:href="#a"/>
            </mask>
            <path fill="#221D20" d="M.853 1.625C.388 1.625 0 1.3 0 .955.001.612.388.29.853.29c.465 0 .838.323.838.666 0 .346-.373.67-.838.67" mask="url(#b)"/>
        </g>
        <path fill="#221D20" d="M20.864 12.907h-5.925v-.464h.307c.392 0 .624-.202.624-.715V1.678c0-.513-.232-.713-.624-.713h-.32V.5h5.938v4.266h-.392v-.048c0-2.526-.72-3.674-2.033-3.674h-.973v5.148h.249c.739 0 1.087-.762 1.087-2.356v-.047h.393v5.366h-.393v-.031c0-1.565-.333-2.373-1.087-2.373h-.249v5.616h.917c1.296 0 2.09-1.35 2.09-3.664v-.046h.39v4.251zM14.548 12.907h-3.471v-.464h.293c.391 0 .638-.202.638-.715v-4.87h-2.54v4.87c0 .515.244.715.639.715h.304v.464H6.927v-.464h.304c.393 0 .64-.202.64-.715V1.678c0-.513-.247-.713-.64-.713h-.304V.5h3.484v.466h-.304c-.395 0-.639.2-.639.714V6.19h2.54V1.68c0-.514-.247-.714-.638-.714h-.293V.5h3.471v.466h-.304c-.393 0-.639.2-.639.714v10.049c0 .515.246.715.64.715h.303v.464z"/>
        <g transform="rotate(-90 6.284 6.716)">
            <mask id="d" fill="#fff">
                <use xlink:href="#c"/>
            </mask>
            <path fill="#221D20" d="M8.203 7.17v-.392h.046c2.003 0 3.708-.71 3.708-1.537v-.35H1.271c-.513 0-.713.246-.713.639v.362H.09V2.32h.467v.335c0 .392.201.637.713.637h10.686v-.304c0-.832-1.597-1.54-3.708-1.54h-.046v-.392h4.298V7.17H8.203z" mask="url(#d)"/>
        </g>
        <path fill="#221D20" d="M50.415 12.907h-5.851v-.464h.406c.393 0 .639-.187.639-.7V1.664c0-.51-.246-.698-.639-.698h-.318V.5h3.454v.466h-.276c-.392 0-.637.187-.637.697v10.704h.856c1.565 0 1.975-1.91 1.975-3.679v-.045h.391v4.265zM44.361 12.907h-5.853l.236-.464h.172c.393 0 .64-.187.64-.7V1.664c0-.51-.247-.698-.64-.698h-.318V.5h3.456v.466h-.276c-.395 0-.639.187-.639.697v10.704h.856c1.565 0 1.975-1.894 1.975-3.693v-.047h.391v4.281zM33.864.966h-.115c-.56 0-.847.109-1.045 1.13L30.58 13h-.651l-1.321-7.132h-.013l-1.35 7.132h-.656L24.515 1.817c-.133-.713-.326-.851-.915-.851h-.045V.5h3.152v.465h-.056c-.455 0-.568.169-.568.495 0 .075-.001.19.013.28l1.322 7.567h.029l.856-4.979-.448-2.512c-.114-.619-.246-.851-.712-.851h-.075V.5h3.109v.465h-.059c-.58 0-.695.208-.695.635 0 .114.018.245.044.388l1.32 7.227h.03l1.248-7.243c.016-.104.028-.205.028-.297 0-.494-.155-.71-.769-.71h-.086V.5h2.626v.465z"/>
        <g transform="rotate(-90 22.312 -9.312)">
            <mask id="f" fill="#fff">
                <use xlink:href="#e"/>
            </mask>
            <path fill="#221D20" d="M.093 7.162V3.866h.464v.087c0 .602.173.784.527.784.102 0 .235-.02.375-.043l1.643-.275V2.445L1.46 2.168c-.153-.026-.265-.045-.375-.045-.384 0-.527.143-.527.74v.06H.093V.44h.464v.132c0 .509.127.798.855.93l11.211 2.016v.741L1.459 6.333c-.674.125-.902.452-.902.728v.1H.093zm3.583-2.86l5.489-.873v-.026l-5.49-.874v1.773z" mask="url(#f)"/>
        </g>
        <path fill="#221D20" d="M91.488 4.797h-.392V4.75c0-2.003-.708-3.708-1.537-3.708h-.35v10.686c0 .513.246.713.64.713h.362v.467h-3.57v-.467h.333c.391 0 .637-.201.637-.713V1.043h-.304c-.832 0-1.54 1.597-1.54 3.708v.046h-.392V.499h6.113v4.298zM84.867 12.907h-5.924v-.464h.307c.391 0 .622-.202.622-.715V1.678c0-.513-.23-.713-.622-.713h-.32V.5h5.937v4.266h-.391v-.048c0-2.526-.718-3.674-2.033-3.674h-.972v5.148h.247c.74 0 1.087-.762 1.087-2.356v-.047h.394v5.366h-.394v-.031c0-1.565-.333-2.373-1.087-2.373h-.247v5.616h.915c1.297 0 2.09-1.35 2.09-3.664v-.046h.391v4.251zM78.537 12.907h-5.923v-.464h.306c.391 0 .622-.202.622-.715V1.678c0-.513-.23-.713-.622-.713H72.6V.5h5.936v4.266h-.391v-.048c0-2.526-.719-3.674-2.033-3.674h-.972v5.148h.247c.74 0 1.087-.762 1.087-2.356v-.047h.393v5.366h-.393v-.031c0-1.565-.333-2.373-1.087-2.373h-.247v5.616h.915c1.297 0 2.09-1.35 2.09-3.664v-.046h.391v4.251zM65.166 4.797h-.392V4.75c0-2.003-.707-3.708-1.537-3.708h-.35v10.686c0 .513.244.713.64.713h.362v.467h-3.572v-.467h.336c.39 0 .636-.201.636-.713V1.043h-.304c-.83 0-1.54 1.597-1.54 3.708v.046h-.39V.499h6.11v4.298zM59.04 9.899c0 2.197-1.246 3.1-2.7 3.1-1.058 0-1.54-.37-2.048-.744l-.275.653h-.305V8.642h.39v.126c0 2.991 1.41 3.674 2.12 3.674 1.078 0 1.556-.662 1.556-1.97 0-1.427-.84-2.467-2.048-3.443-1.095-.886-2.106-1.971-2.106-3.785 0-1.865 1.08-2.837 2.368-2.837 1.07 0 1.571.465 1.857.728l.29-.605h.29v4.28h-.393v-.123c0-2.327-.653-3.721-1.942-3.721-.819 0-1.251.616-1.251 1.596 0 1.168.645 1.83 1.844 2.824 1.328 1.1 2.353 2.259 2.353 4.513M72.513 11.216c0 1.041-.37 1.784-1.32 1.784-.952 0-1.356-.754-1.424-2.295l-.101-2.31c-.054-1.222-.493-1.55-1.147-1.55h-.423v4.88c0 .516.189.716.583.716h.405v.466h-3.542v-.466h.333c.393 0 .642-.2.642-.715V1.678c0-.513-.249-.713-.642-.713h-.333V.5h3.178c1.922 0 3.123 1.053 3.123 3.01 0 2.048-1.334 2.822-2.512 3.069v.032a2.129 2.129 0 0 1 1.901 2.048l.132 2.714c.026.54.088.697.318.697.291 0 .348-.233.348-1.039v-.45h.481v.636zm-2.338-7.679c0-1.937-.717-2.494-1.698-2.494h-.379V6.27h.437c1.026 0 1.64-.743 1.64-2.732zM137.299 12.907h-5.852l.233-.464h.174c.393 0 .64-.187.64-.7V1.665c0-.51-.247-.699-.64-.699h-.319V.5h3.455v.466h-.276c-.392 0-.637.189-.637.699v10.702h.854c1.569 0 1.976-1.894 1.976-3.679v-.045h.392v4.265zM125.597.966h-.304c-.362 0-.653.294-.653.898v11.091h-.567l-3.63-9.773h-.028v8.36c0 .607.29.9.653.9h.291v.466h-2.455v-.467h.334c.364 0 .652-.292.652-.898V1.74c0-.434-.156-.775-.564-.775h-.422V.5h2.237l2.945 7.987h.03V1.864c0-.609-.29-.898-.653-.898h-.305V.5h2.44v.465zM112.254.966h-.609c-.364 0-.58.325-.58.898v8.268c0 1.645-.515 2.867-2.18 2.867-1.767 0-2.802-1.159-2.802-2.867V1.676c0-.51-.23-.71-.623-.71h-.32V.5h3.4v.465h-.22c-.393 0-.624.2-.624.71v8.564c0 1.397.515 2.201 1.395 2.201.89 0 1.438-.679 1.438-2.201V1.864c0-.573-.207-.898-.567-.898h-.337V.5h2.63v.465zM99.13.966h-.29c-.394 0-.639.2-.639.71v8.656c0 1.944-1.14 2.667-2.6 2.667-1.042 0-2.09-.91-2.09-2.667 0-.942.551-1.347.985-1.347.458 0 .787.343.787.928 0 .75-.412 1.063-.943 1.149 0 .635.458 1.38 1.246 1.38.758 0 1.016-.447 1.016-1.783V1.676c0-.51-.23-.71-.622-.71h-.306V.5h3.457v.465z"/>
        <g transform="rotate(-90 68.846 -55.846)">
            <mask id="h" fill="#fff">
                <use xlink:href="#g"/>
            </mask>
            <path fill="#221D20" d="M.093 7.03V3.736h.464v.086c0 .601.173.785.527.785.102 0 .235-.021.375-.046l1.643-.273V2.314L1.46 2.038c-.153-.026-.265-.046-.375-.046-.384 0-.527.142-.527.741v.06H.093V.31h.464v.13c0 .507.127.8.855.93l11.211 2.02v.737L1.459 6.204c-.674.124-.902.45-.902.725v.1H.093zm3.583-2.86l5.489-.87v-.029l-5.49-.873V4.17z" mask="url(#h)"/>
        </g>
        <path fill="#221D20" d="M118.875 11.216c0 1.041-.37 1.784-1.32 1.784-.952 0-1.355-.754-1.423-2.295l-.104-2.31c-.052-1.23-.49-1.55-1.146-1.55h-.42v4.88c0 .516.186.716.581.716h.408v.466h-3.544v-.466h.333c.393 0 .64-.2.64-.715V1.678c0-.513-.247-.713-.64-.713h-.333V.5h3.178c1.923 0 3.122 1.053 3.122 3.01 0 2.048-1.332 2.822-2.512 3.069v.032c.967.11 1.846.87 1.903 2.048l.13 2.714c.026.54.087.697.32.697.29 0 .348-.233.348-1.039v-.45h.479v.636zm-2.337-7.679c0-1.937-.716-2.494-1.698-2.494h-.379V6.27h.436c1.025 0 1.641-.743 1.641-2.732zM105.169 6.674c0 3.525-1.08 6.326-3.063 6.326-1.936 0-3.02-2.801-3.02-6.326 0-3.528 1.039-6.266 3.02-6.266 1.958 0 3.063 2.738 3.063 6.266m-1.8 2.944V3.757c0-2.145-.446-2.792-1.263-2.792-.818 0-1.234.616-1.234 2.825v5.812c0 2.069.372 2.839 1.234 2.839.85 0 1.262-.816 1.262-2.823"/>
    </g>
</svg>
